<svg fill="none" height="70" viewBox="0 0 70 70" width="70" xmlns="http://www.w3.org/2000/svg" xmlns:xlink="http://www.w3.org/1999/xlink"><filter id="a" color-interpolation-filters="sRGB" filterUnits="userSpaceOnUse" height="70" width="70" x="0" y="0"><feFlood flood-opacity="0" result="BackgroundImageFix"/><feColorMatrix in="SourceAlpha" type="matrix" values="0 0 0 0 0 0 0 0 0 0 0 0 0 0 0 0 0 0 127 0"/><feOffset/><feGaussianBlur stdDeviation="5"/><feColorMatrix type="matrix" values="0 0 0 0 1 0 0 0 0 1 0 0 0 0 1 0 0 0 0.7 0"/><feBlend in2="BackgroundImageFix" mode="normal" result="effect1_dropShadow"/><feBlend in="SourceGraphic" in2="effect1_dropShadow" mode="normal" result="shape"/></filter><filter id="b" color-interpolation-filters="sRGB" filterUnits="userSpaceOnUse" height="50" width="52" x="9" y="10"><feFlood flood-opacity="0" result="BackgroundImageFix"/><feColorMatrix in="SourceAlpha" type="matrix" values="0 0 0 0 0 0 0 0 0 0 0 0 0 0 0 0 0 0 127 0"/><feOffset/><feGaussianBlur stdDeviation="5"/><feColorMatrix type="matrix" values="0 0 0 0 1 0 0 0 0 1 0 0 0 0 1 0 0 0 0.25 0"/><feBlend in2="BackgroundImageFix" mode="normal" result="effect1_dropShadow"/><feBlend in="SourceGraphic" in2="effect1_dropShadow" mode="normal" result="shape"/></filter><g filter="url(#a)"><rect height="49" rx="24.5" stroke="#fff" width="49" x="10.5" y="10.5"/></g><g filter="url(#b)"><path clip-rule="evenodd" d="m28.7829 20.1865c-.9282.2883-2.3148 1.0808-3.0698 1.755-1.066.9515-1.2872 1.6457-1.0104 3.1683.3517 1.9348.2916 2.3205-.5729 3.6793-.7541 1.1856-.8975 1.2952-2.388 1.8293-1.8818.6744-2.2829 1.1349-2.6273 3.0178-.3017 1.6498.0186 3.8239.6593 4.4755.2276.2317 1.1131.7283 1.9672 1.1036 1.4727.6472 1.5915.7536 2.2925 2.0527l.7396 1.3701-.3457 1.7525c-.3171 1.6075-.3175 1.813-.0034 2.4859.6069 1.3003 3.4944 3.1131 4.9746 3.1228.5364.0035 1.0943-.2754 2.1655-1.0829l1.443-1.0877h2.0211 2.0211l1.3758 1.0858c1.0511.8297 1.5523 1.0857 2.1244 1.0855 1.4742-.0002 4.3801-1.7684 5.0406-3.0669.2864-.5635.2841-.8306-.0208-2.4859l-.3419-1.8543.7679-1.3962c.7541-1.3712.7964-1.4067 2.395-2.0047 1.2141-.4544 1.7262-.771 2.0172-1.2472.8264-1.3527.7792-4.7261-.0845-6.0248-.356-.5354-.8446-.8413-2.0521-1.2851-1.6837-.6184-1.8895-.8042-2.7245-2.4593-.4987-.9887-.5173-1.1443-.3038-2.5433.1252-.8197.2274-1.6916.2274-1.9377 0-1.1471-3.0193-3.3564-4.9558-3.6264-.8872-.1238-1.0107-.0692-2.4661 1.0888l-1.5322 1.2191h-1.5245-1.5247l-1.4563-1.1965c-1.4897-1.2239-1.989-1.3775-3.2275-.9931zm8.5515 8.9491c2.1114.974 3.1965 2.2897 3.7718 4.5728.5881 2.3347-.1113 4.5445-1.9912 6.2918-3.2013 2.9749-8.1831 1.9516-10.1196-2.0789-.7736-1.6104-.7462-3.901.0669-5.5847.6968-1.4428 2.142-2.8325 3.4269-3.2954 1.345-.4847 3.6887-.439 4.8452.0944z" fill="#fff" fill-rule="evenodd"/></g></svg>